<svg width="21" height="21" viewBox="0 0 21 21" fill="none" xmlns="http://www.w3.org/2000/svg">
<path d="M7.49996 5.76919H7.5115M13.2692 5.76919H13.2807M7.49996 10.3846C7.87598 10.7683 8.32479 11.0732 8.82011 11.2814C9.31543 11.4895 9.8473 11.5967 10.3846 11.5967C10.9219 11.5967 11.4537 11.4895 11.949 11.2814C12.4444 11.0732 12.8932 10.7683 13.2692 10.3846M1.15381 19.6153V4.61535C1.15381 3.69729 1.51851 2.81683 2.16767 2.16767C2.81683 1.51851 3.69729 1.15381 4.61535 1.15381H16.1538C17.0719 1.15381 17.9523 1.51851 18.6015 2.16767C19.2507 2.81683 19.6153 3.69729 19.6153 4.61535V11.5384C19.6153 12.4565 19.2507 13.3369 18.6015 13.9861C17.9523 14.6353 17.0719 15 16.1538 15H5.76919L1.15381 19.6153Z" stroke="#FFF6EB" stroke-width="2.30769" stroke-linecap="round" stroke-linejoin="round"/>
</svg>
