<svg width="21" height="21" viewBox="0 0 21 24" fill="none" xmlns="http://www.w3.org/2000/svg">
<path d="M6.92304 10.3842C6.92304 11.3023 7.28774 12.1827 7.9369 12.8319C8.58606 13.4811 9.46652 13.8458 10.3846 13.8458C11.3026 13.8458 12.1831 13.4811 12.8323 12.8319C13.4814 12.1827 13.8461 11.3023 13.8461 10.3842C13.8461 9.46617 13.4814 8.58571 12.8323 7.93655C12.1831 7.28738 11.3026 6.92269 10.3846 6.92269C9.46652 6.92269 8.58606 7.28738 7.9369 7.93655C7.28774 8.58571 6.92304 9.46617 6.92304 10.3842Z" stroke="#FFF6EB" stroke-width="2.30769" stroke-linecap="round" stroke-linejoin="round"/>
<path d="M16.9119 16.9115L12.0161 21.8073C11.5834 22.2396 10.9968 22.4824 10.3852 22.4824C9.77352 22.4824 9.18691 22.2396 8.7542 21.8073L3.85727 16.9115C2.56638 15.6206 1.68728 13.9758 1.33114 12.1852C0.975012 10.3947 1.15784 8.53868 1.85651 6.85201C2.55518 5.16533 3.73831 3.72371 5.25629 2.70944C6.77427 1.69517 8.55893 1.15381 10.3846 1.15381C12.2102 1.15381 13.9949 1.69517 15.5129 2.70944C17.0309 3.72371 18.214 5.16533 18.9127 6.85201C19.6113 8.53868 19.7942 10.3947 19.438 12.1852C19.0819 13.9758 18.2028 15.6206 16.9119 16.9115Z" stroke="#FFF6EB" stroke-width="2.30769" stroke-linecap="round" stroke-linejoin="round"/>
</svg>
