<!-- 
* Sizes
* Mobile - width="85"  height="32"
* Tablet - width="338" height="128"
* Desktop - 
 -->
<svg viewBox="0 0 85 32" xmlns="http://www.w3.org/2000/svg">
<path d="M10.3686 31.3732C8.51905 31.3732 6.82053 31.0995 5.27298 30.5522C3.74431 30.0049 2.50816 29.2029 1.56453 28.146C0.620906 27.0703 0.101912 25.7492 0.00754901 24.1828C-0.030196 23.5411 0.0736028 22.8334 0.318946 22.0596C0.564288 21.2858 0.903994 20.5215 1.33806 19.7666C1.791 18.9928 2.31943 18.304 2.92335 17.7001C3.54615 17.0773 4.20668 16.6055 4.90497 16.2846C4.96158 16.2469 5.04651 16.2186 5.15975 16.1997C5.29185 16.1808 5.38622 16.1714 5.44283 16.1714C5.55607 16.1714 5.61269 16.1997 5.61269 16.2563C5.61269 16.3507 5.47114 16.5017 5.18806 16.7093C4.39541 17.332 3.74431 18.0492 3.23475 18.8607C2.70632 19.6722 2.31 20.5404 2.04578 21.4651C1.78157 22.3899 1.64946 23.3241 1.64946 24.2677C1.64946 25.3812 1.88536 26.3437 2.35718 27.1552C2.84786 27.9478 3.49896 28.5989 4.31048 29.1085C5.122 29.6369 6.04675 30.0238 7.08474 30.2692C8.12273 30.5145 9.2079 30.6372 10.3403 30.6372C11.6047 30.6372 12.8503 30.4956 14.077 30.2125C15.3226 29.9295 16.4549 29.5237 17.4741 28.9953C19.0405 28.1649 20.2766 27.1363 21.1825 25.9096C22.1073 24.6829 22.5696 23.4656 22.5696 22.2578C22.5696 21.6161 22.4281 21.0028 22.145 20.4177C21.8808 19.8327 21.4467 19.3042 20.8428 18.8324C20.3899 18.4738 19.8331 18.1341 19.1726 17.8133C18.5309 17.4925 17.8421 17.1811 17.1061 16.8791C16.3889 16.5771 15.6812 16.2752 14.9829 15.9732C14.2846 15.6524 13.6713 15.3127 13.1428 14.9541C12.3879 14.4446 11.8312 13.8972 11.4726 13.3122C11.1329 12.7272 10.963 12.1421 10.963 11.5571C10.963 10.8588 11.1612 10.1794 11.5575 9.51883C11.9727 8.85829 12.5295 8.2638 13.2277 7.73537C13.9449 7.18807 14.747 6.76344 15.634 6.46148C16.4078 6.19726 17.2476 5.98966 18.1535 5.83868C19.0782 5.6877 19.9841 5.61221 20.8711 5.61221C21.6071 5.61221 22.3054 5.66883 22.966 5.78207C23.6454 5.87643 24.2399 6.05572 24.7494 6.31993C25.3911 6.62189 25.8818 7.02765 26.2215 7.53721C26.5612 8.0279 26.731 8.54689 26.731 9.09419C26.731 9.84909 26.3913 10.5096 25.7119 11.0758C25.4666 11.2645 25.1929 11.4438 24.891 11.6137C24.589 11.7647 24.2304 11.8968 23.8152 12.01C23.7397 12.0289 23.6548 12.0383 23.5605 12.0383C23.334 12.0383 23.2207 11.9723 23.2207 11.8401C23.2207 11.7647 23.2774 11.6892 23.3906 11.6137C23.5227 11.5193 23.7114 11.4627 23.9568 11.4438C24.5229 11.3683 24.9476 11.1513 25.2307 10.7927C25.5326 10.4341 25.6836 10.0189 25.6836 9.54713C25.6836 9.05645 25.5138 8.5752 25.1741 8.10339C24.8532 7.6127 24.3531 7.20694 23.6737 6.88611C22.9943 6.5464 22.1261 6.37655 21.0693 6.37655C20.4654 6.37655 19.7954 6.44261 19.0594 6.57471C18.3422 6.70682 17.559 6.92385 16.7097 7.22581C15.6717 7.58439 14.8036 8.11282 14.1053 8.81111C13.4259 9.50939 13.0862 10.2549 13.0862 11.0475C13.0862 11.5382 13.2466 12.0383 13.5675 12.5479C13.9072 13.0385 14.445 13.5104 15.1811 13.9633C15.8038 14.3408 16.5116 14.7182 17.3042 15.0957C18.0969 15.4542 18.8989 15.8222 19.7105 16.1997C20.522 16.5583 21.258 16.9452 21.9185 17.3604C22.9565 18.002 23.702 18.6909 24.1549 19.4269C24.6079 20.1629 24.8343 20.9178 24.8343 21.6916C24.8343 22.5975 24.5607 23.5128 24.0134 24.4375C23.485 25.3434 22.7867 26.2021 21.9185 27.0136C21.0504 27.8063 20.0973 28.514 19.0594 29.1368C17.8515 29.854 16.4833 30.4013 14.9546 30.7787C13.4448 31.175 11.9161 31.3732 10.3686 31.3732Z" />
<path d="M24.1131 28.9953C24.9058 27.3722 25.7267 25.6737 26.576 23.8997C27.4441 22.1068 28.3311 20.3045 29.237 18.4927C30.1429 16.6809 31.0393 14.9541 31.9264 13.3122C32.2472 12.746 32.5397 12.3025 32.8039 11.9817C33.087 11.6609 33.455 11.5004 33.908 11.5004C34.0778 11.5004 34.276 11.5287 34.5025 11.5854C34.7289 11.642 34.946 11.6514 35.1536 11.6137C34.9082 11.8779 34.5685 12.3403 34.1344 13.0008C33.7192 13.6613 33.2474 14.454 32.719 15.3787C32.2094 16.3035 31.6621 17.3037 31.0771 18.3795C30.5109 19.4363 29.9447 20.5121 29.3786 21.6067C28.8313 22.6824 28.3217 23.6921 27.8499 24.6357C28.2273 24.145 28.6142 23.6826 29.0106 23.2486C29.4069 22.8145 29.7938 22.4371 30.1712 22.1162C30.5864 21.7388 31.1054 21.3425 31.7282 20.9273C32.3699 20.5121 33.0021 20.1535 33.6249 19.8515C34.2665 19.5496 34.7761 19.3986 35.1536 19.3986C35.2857 19.3986 35.38 19.408 35.4366 19.4269C35.4366 19.4269 35.3328 19.6156 35.1252 19.9931C34.9177 20.3705 34.6534 20.8518 34.3326 21.4368C34.0306 22.0219 33.7098 22.6541 33.3701 23.3335C33.0493 24.0129 32.7662 24.664 32.5208 25.2868C32.2755 25.8907 32.1151 26.3909 32.0396 26.7872C31.983 27.0891 31.9547 27.3439 31.9547 27.5515C31.9547 27.8535 32.0113 28.0611 32.1245 28.1743C32.2378 28.2687 32.3604 28.3159 32.4925 28.3159C32.8134 28.3159 33.1531 28.1554 33.5116 27.8346C33.8891 27.4949 34.2571 27.0703 34.6157 26.5607C34.9743 26.0511 35.3045 25.5133 35.6065 24.9471C35.9273 24.3621 36.1821 23.8148 36.3708 23.3052C36.5973 23.3052 36.7105 23.3901 36.7105 23.56C36.5029 24.0695 36.2387 24.6357 35.9179 25.2585C35.6159 25.8624 35.2668 26.438 34.8705 26.9853C34.4741 27.5326 34.0401 27.9856 33.5683 28.3442C33.0965 28.7027 32.5963 28.882 32.0679 28.882C31.6904 28.882 31.3036 28.7499 30.9072 28.4857C30.5109 28.2215 30.3128 27.7402 30.3128 27.042C30.3128 26.8344 30.3316 26.6173 30.3694 26.3909C30.4071 26.1455 30.4732 25.8719 30.5675 25.5699C30.6808 25.1924 30.8695 24.7773 31.1337 24.3243C31.3979 23.8525 31.7376 23.2675 32.1528 22.5692C32.3416 22.2483 32.4359 21.9936 32.4359 21.8048C32.4359 21.5784 32.3227 21.4651 32.0962 21.4651C31.9075 21.4651 31.6527 21.5595 31.3319 21.7482C31.011 21.9369 30.6053 22.2672 30.1146 22.739C29.6428 23.192 29.0577 23.8525 28.3594 24.7206C27.6612 25.5888 26.9157 26.806 26.1231 28.3725C25.9909 28.6178 25.84 28.7499 25.6701 28.7688C25.5191 28.7688 25.3115 28.7782 25.0473 28.7971C24.8775 28.816 24.7076 28.8254 24.5378 28.8254C24.3679 28.8443 24.2264 28.9009 24.1131 28.9953Z" />
<path d="M37.1617 28.7688C36.4634 28.7688 35.9727 28.5706 35.6897 28.1743C35.4066 27.7591 35.265 27.2873 35.265 26.7589C35.265 26.4758 35.2933 26.1927 35.3499 25.9096C35.4254 25.6076 35.5104 25.334 35.6047 25.0887L37.5014 20.2479C37.558 20.0969 37.5863 19.9648 37.5863 19.8515C37.5863 19.6628 37.5392 19.5024 37.4448 19.3703C37.3504 19.2193 37.2844 19.1155 37.2466 19.0589L38.8036 19.0023C39.0867 18.9834 39.2849 19.0211 39.3981 19.1155C39.5302 19.191 39.5963 19.2854 39.5963 19.3986C39.5963 19.5118 39.5302 19.7194 39.3981 20.0214C39.2094 20.4743 38.9546 21.0405 38.6338 21.7199C38.3129 22.3993 37.9921 23.0976 37.6713 23.8148C37.3693 24.5319 37.1051 25.2019 36.8786 25.8247C36.671 26.4475 36.5672 26.9287 36.5672 27.2684C36.5672 27.5138 36.6238 27.7214 36.7371 27.8912C36.8692 28.0611 37.0862 28.146 37.3882 28.146C37.7845 28.146 38.1714 27.995 38.5488 27.6931C38.9452 27.3722 39.3132 26.9665 39.6529 26.4758C39.9926 25.9851 40.304 25.4567 40.5871 24.8905C40.889 24.3243 41.1438 23.7959 41.3514 23.3052C41.5779 23.3052 41.6911 23.3901 41.6911 23.56C41.5024 24.0318 41.257 24.5697 40.9551 25.1736C40.6531 25.7775 40.304 26.3531 39.9077 26.9004C39.5302 27.4288 39.1056 27.8723 38.6338 28.2309C38.1808 28.5895 37.6901 28.7688 37.1617 28.7688ZM39.6812 17.2471C39.4358 17.2471 39.2188 17.1528 39.0301 16.964C38.8602 16.7753 38.7753 16.5488 38.7753 16.2846C38.7753 15.9638 38.9074 15.6807 39.1716 15.4354C39.4358 15.1711 39.7284 15.039 40.0492 15.039C40.3134 15.039 40.5399 15.124 40.7286 15.2938C40.9173 15.4637 41.0117 15.6807 41.0117 15.9449C41.0117 16.2846 40.8796 16.5866 40.6154 16.8508C40.3512 17.115 40.0398 17.2471 39.6812 17.2471Z" />
<path d="M41.3452 23.3052C41.4773 23.0032 41.6189 22.6918 41.7698 22.371C41.9208 22.0313 42.1379 21.6067 42.4209 21.0971C42.7607 20.4932 43.1192 20.0497 43.4967 19.7666C43.8741 19.4646 44.2421 19.2665 44.6007 19.1721C44.9593 19.0778 45.2518 19.0306 45.4783 19.0306C45.9501 19.0306 46.3653 19.0966 46.7239 19.2287C47.0825 19.3608 47.4033 19.5024 47.6864 19.6534C47.9883 19.7855 48.2809 19.8515 48.564 19.8515C48.9225 19.8515 49.1867 19.7572 49.3566 19.5684C49.5265 19.3797 49.6774 19.2854 49.8095 19.2854C49.9416 19.2854 50.0549 19.342 50.1492 19.4552C50.2436 19.5684 50.2908 19.71 50.2908 19.8798C50.2908 20.1252 50.187 20.3045 49.9794 20.4177C49.7718 20.5309 49.4227 20.7197 48.932 20.9839C48.4035 21.267 47.9317 21.6727 47.5165 22.2012C47.1013 22.7296 46.6956 23.2958 46.2993 23.8997C45.9218 24.5036 45.5066 25.0981 45.0537 25.6831C44.6007 26.2493 44.0723 26.7306 43.4684 27.1269C44.1855 27.2401 44.8461 27.3628 45.45 27.4949C46.0539 27.627 46.5823 27.6931 47.0353 27.6931C47.1485 27.6931 47.2429 27.6931 47.3184 27.6931C47.4127 27.6742 47.5071 27.6553 47.6015 27.6364C48.1676 27.4855 48.6583 27.1835 49.0735 26.7306C49.5076 26.2587 49.885 25.7209 50.2059 25.117C50.5267 24.513 50.8098 23.9091 51.0551 23.3052C51.2816 23.3052 51.3948 23.3901 51.3948 23.56C51.0551 24.4092 50.6494 25.2491 50.1776 26.0795C49.7057 26.9098 49.1773 27.5987 48.5923 28.146C48.0072 28.6933 47.3656 28.967 46.6673 28.967C45.8369 28.967 45.1008 28.8915 44.4592 28.7405C43.8175 28.5895 43.2796 28.514 42.8456 28.514C42.487 28.514 42.1379 28.6084 41.7982 28.7971C41.4773 29.0047 41.1282 29.1085 40.7507 29.1085C40.411 29.1085 40.2412 28.967 40.2412 28.6839C40.2412 28.4951 40.2884 28.3347 40.3827 28.2026C40.4393 28.0894 40.6375 27.9667 40.9772 27.8346C41.3169 27.6836 41.666 27.5421 42.0246 27.41C42.4021 27.259 42.6569 27.1458 42.789 27.0703C43.1287 26.9004 43.4967 26.5796 43.893 26.1078C44.3082 25.6171 44.7328 25.0698 45.1669 24.4659C45.601 23.8431 46.0256 23.2391 46.4408 22.6541C46.856 22.069 47.2523 21.5784 47.6298 21.182C47.2901 21.1066 46.9032 21.0216 46.4691 20.9273C46.035 20.8329 45.6293 20.7857 45.2518 20.7857C44.7045 20.7857 44.2327 20.8423 43.8364 20.9556C43.4401 21.0499 43.0721 21.2953 42.7323 21.6916C42.4115 22.0879 42.0624 22.7107 41.6849 23.56C41.4585 23.56 41.3452 23.4751 41.3452 23.3052Z" />
<path d="M51.8697 28.7688C51.6621 28.7688 51.4073 28.7216 51.1053 28.6272C50.8222 28.5329 50.5675 28.363 50.341 28.1177C50.1334 27.8535 50.0296 27.4666 50.0296 26.957C50.0296 26.4663 50.19 25.9002 50.5108 25.2585C50.8317 24.6168 51.1148 24.0507 51.3601 23.56C51.1525 23.56 51.0487 23.4751 51.0487 23.3052C51.0676 23.2486 51.1525 23.0693 51.3035 22.7673C51.4545 22.4654 51.6338 22.1068 51.8414 21.6916C52.049 21.2764 52.2471 20.8801 52.4358 20.5026C52.6434 20.1063 52.8039 19.8043 52.9171 19.5968C53.1436 19.1816 53.5021 18.974 53.9928 18.974H55.748C55.4271 19.2193 55.1346 19.493 54.8704 19.7949C54.6251 20.078 54.3137 20.6064 53.9362 21.3802C53.9362 21.3802 53.8702 21.5123 53.738 21.7765C53.6059 22.0407 53.4361 22.3804 53.2285 22.7956C53.0398 23.192 52.8416 23.5977 52.634 24.0129C52.4453 24.4281 52.2849 24.7773 52.1528 25.0603C51.9074 25.5888 51.747 26.0134 51.6715 26.3342C51.596 26.6362 51.5583 26.9193 51.5583 27.1835C51.5583 27.8063 51.7659 28.1177 52.1811 28.1177C52.634 28.1177 53.1813 27.7497 53.823 27.0136C54.3514 26.3909 54.8704 25.6454 55.38 24.7773C55.8895 23.9091 56.3708 23.0127 56.8237 22.0879C57.2955 21.1632 57.7107 20.3328 58.0693 19.5968C58.2769 19.1816 58.6449 18.974 59.1733 18.974H60.7303C60.3151 19.3137 59.8905 19.8232 59.4564 20.5026C59.0412 21.182 58.5788 22.0502 58.0693 23.107C57.9372 23.3901 57.7673 23.7487 57.5597 24.1828C57.3521 24.6168 57.1634 25.0792 56.9936 25.5699C56.8426 26.0606 56.7671 26.5513 56.7671 27.042C56.7671 27.7025 57.003 28.0328 57.4748 28.0328C58.1165 28.0328 58.7393 27.5893 59.3432 26.7023C59.9471 25.8152 60.5416 24.6829 61.1266 23.3052C61.2776 23.3052 61.3625 23.3146 61.3814 23.3335C61.4192 23.3524 61.4475 23.4279 61.4663 23.56C61.2587 24.0695 61.004 24.6263 60.702 25.2302C60.4189 25.8152 60.0886 26.3814 59.7112 26.9287C59.3526 27.476 58.9469 27.9195 58.4939 28.2592C58.0599 28.5989 57.5786 28.7688 57.0502 28.7688C56.5784 28.7688 56.1915 28.5989 55.8895 28.2592C55.5876 27.9007 55.4366 27.4005 55.4366 26.7589C55.4366 26.2493 55.5309 25.702 55.7197 25.117C55.3988 25.6831 55.0308 26.2493 54.6156 26.8155C54.2004 27.3817 53.7569 27.8535 53.2851 28.2309C52.8133 28.5895 52.3415 28.7688 51.8697 28.7688Z" />
<path d="M66.065 28.967C65.5365 28.9103 65.1025 28.7122 64.7628 28.3725C64.4231 28.0139 64.1777 27.5987 64.0267 27.1269C63.8758 26.6551 63.8003 26.221 63.8003 25.8247C63.8003 25.0698 63.9701 24.4659 64.3098 24.0129C64.6495 23.5411 64.9609 23.2958 65.244 23.2769C65.546 23.2958 65.914 23.2297 66.3481 23.0787C66.7821 22.9089 67.1596 22.6824 67.4804 22.3993C68.0277 21.9653 68.3014 21.5217 68.3014 21.0688C68.3014 20.597 68.0277 20.3611 67.4804 20.3611C67.1784 20.3611 66.7916 20.4649 66.3197 20.6725C65.8668 20.8801 65.3384 21.2387 64.7345 21.7482C63.9796 22.3899 63.1964 23.2486 62.3848 24.3243C62.2716 24.5697 62.1395 24.9377 61.9885 25.4284C61.8375 25.9002 61.7054 26.3909 61.5922 26.9004C61.4978 27.41 61.4506 27.844 61.4506 28.2026C61.4506 28.4857 61.4978 28.6744 61.5922 28.7688H59.8087C59.6011 28.7688 59.4973 28.6839 59.4973 28.514C59.4973 28.4574 59.5068 28.4102 59.5256 28.3725C59.5445 28.3347 59.5634 28.2592 59.5823 28.146C59.8465 27.1646 60.1579 26.2965 60.5164 25.5416C60.8939 24.7867 61.2053 24.1262 61.4506 23.56C61.2808 23.6166 61.1864 23.6072 61.1675 23.5317C61.1487 23.4373 61.1392 23.3618 61.1392 23.3052C61.2714 23.0032 61.4884 22.522 61.7903 21.8615C62.1112 21.182 62.4792 20.4083 62.8944 19.5401C63.3285 18.6531 63.7908 17.7284 64.2815 16.7659C64.7722 15.8034 65.2629 14.8786 65.7536 13.9916C66.2443 13.0857 66.6406 12.4441 66.9425 12.0666C67.2634 11.6892 67.6503 11.5004 68.1032 11.5004C68.2731 11.5004 68.4712 11.5287 68.6977 11.5854C68.943 11.642 69.1601 11.6514 69.3488 11.6137C68.9336 11.9723 68.4146 12.6328 67.7918 13.5953C67.169 14.5389 66.5085 15.643 65.8102 16.9074C65.1119 18.1719 64.4419 19.4646 63.8003 20.7857C63.6115 21.1632 63.4323 21.5595 63.2624 21.9747C63.0925 22.3899 62.9321 22.8051 62.7812 23.2203C63.1775 22.7296 63.6304 22.22 64.14 21.6916C64.6495 21.1632 65.178 20.6819 65.7253 20.2479C66.2914 19.7949 66.8482 19.4646 67.3955 19.257C68.0183 19.0306 68.5373 18.9173 68.9525 18.9173C69.3865 18.9173 69.6979 19.0211 69.8867 19.2287C70.0943 19.4363 70.1981 19.7005 70.1981 20.0214C70.1981 20.38 70.0565 20.814 69.7734 21.3236C69.4903 21.8143 69.1034 22.2389 68.6128 22.5975C68.1976 22.8806 67.7635 23.1259 67.3106 23.3335C66.8576 23.5411 66.3197 23.6732 65.697 23.7298C65.5837 23.994 65.4988 24.2677 65.4422 24.5508C65.4044 24.815 65.3856 25.0792 65.3856 25.3434C65.3856 26.0795 65.5554 26.7306 65.8951 27.2967C66.2348 27.844 66.6783 28.1177 67.2256 28.1177C67.4898 28.1177 67.7729 28.0422 68.0749 27.8912C68.3957 27.7402 68.726 27.4855 69.0657 27.1269C69.4431 26.7494 69.8206 26.2304 70.1981 25.5699C70.5755 24.8905 70.953 24.1356 71.3304 23.3052C71.5569 23.3052 71.6701 23.3901 71.6701 23.56C70.9907 25.2019 70.3302 26.4192 69.6885 27.2118C69.0468 28.0045 68.424 28.514 67.8201 28.7405C67.2351 28.9481 66.65 29.0236 66.065 28.967Z" />
<path d="M77.4834 28.8537C77.0493 28.8537 76.6624 28.731 76.3227 28.4857C76.0019 28.2404 75.8414 27.7402 75.8414 26.9853C75.8414 26.6645 75.8603 26.3625 75.8981 26.0795C75.9547 25.7964 76.0207 25.4944 76.0962 25.1736C75.9264 25.4567 75.6905 25.8058 75.3885 26.221C75.0865 26.6362 74.7468 27.042 74.3694 27.4383C74.0108 27.8346 73.6334 28.1649 73.237 28.4291C72.8596 28.6933 72.501 28.8254 72.1613 28.8254C71.6706 28.8254 71.2743 28.6084 70.9723 28.1743C70.6704 27.7214 70.5194 27.1363 70.5194 26.4192C70.5194 25.6454 70.6987 24.815 71.0573 23.928C71.4158 23.041 71.9065 22.1917 72.5293 21.3802C73.1521 20.5687 73.8693 19.9081 74.6808 19.3986C75.4923 18.889 76.3416 18.6343 77.2286 18.6343C77.6626 18.6343 78.0778 18.7097 78.4742 18.8607C78.8705 18.9928 79.2196 19.2193 79.5216 19.5401C79.6537 19.6722 79.7197 19.8232 79.7197 19.9931C79.7197 20.1063 79.6726 20.2007 79.5782 20.2762C79.4838 20.3517 79.3612 20.3705 79.2102 20.3328C79.0026 19.6722 78.5591 19.342 77.8797 19.342C77.5588 19.342 77.1908 19.4458 76.7756 19.6534C76.2661 19.9176 75.7188 20.3422 75.1337 20.9273C74.5676 21.4934 74.0297 22.1445 73.5201 22.8806C73.0294 23.5977 72.6237 24.3243 72.3028 25.0603C71.982 25.7964 71.8216 26.4663 71.8216 27.0703C71.8216 27.6931 72.0575 28.0045 72.5293 28.0045C72.9445 28.0045 73.3692 27.8063 73.8032 27.41C74.2562 27.0136 74.6808 26.523 75.0771 25.9379C75.4923 25.334 75.8698 24.7395 76.2095 24.1545C76.5492 23.5694 76.8134 23.0976 77.0021 22.739C77.2852 22.2295 77.5494 21.8048 77.7948 21.4651C78.0401 21.1254 78.3892 20.9556 78.8422 20.9556C79.0498 20.9556 79.2574 20.9839 79.465 21.0405C79.6726 21.0971 79.8896 21.1066 80.1161 21.0688C79.5499 21.635 79.0498 22.305 78.6157 23.0787C78.2005 23.8525 77.8797 24.6168 77.6532 25.3717C77.4267 26.1078 77.3135 26.7306 77.3135 27.2401C77.3135 27.8063 77.5022 28.0894 77.8797 28.0894C78.1816 28.0894 78.5025 27.9195 78.8422 27.5798C79.2008 27.2401 79.5405 26.8155 79.8613 26.3059C80.201 25.7775 80.5124 25.2491 80.7955 24.7206C81.0786 24.1733 81.305 23.7015 81.4749 23.3052C81.5693 23.3052 81.6447 23.3146 81.7014 23.3335C81.7769 23.3524 81.8146 23.4279 81.8146 23.56C81.7957 23.6355 81.758 23.7204 81.7014 23.8148C81.6636 23.8902 81.5976 24.0318 81.5032 24.2394C81.3522 24.5413 81.1446 24.9471 80.8804 25.4567C80.6162 25.9662 80.3048 26.4852 79.9462 27.0136C79.5876 27.5232 79.2008 27.9573 78.7856 28.3159C78.3704 28.6744 77.9363 28.8537 77.4834 28.8537Z" />
<path d="M37.9838 0.0849261C38.1725 0.0849261 38.4037 0.0943625 38.6773 0.113235C38.9604 0.132108 39.2482 0.160416 39.5408 0.198161C39.8427 0.22647 40.1022 0.259497 40.3192 0.297242C40.5457 0.325551 40.7014 0.358578 40.7863 0.396323L40.6165 2.30716H40.4749C40.4749 1.81648 40.2909 1.42487 39.9229 1.13235C39.5643 0.83039 39.0831 0.67941 38.4792 0.67941C37.9319 0.67941 37.4884 0.811518 37.1487 1.07573C36.8184 1.33995 36.6438 1.66078 36.6249 2.03823C36.6155 2.32132 36.7052 2.56666 36.8939 2.77426C37.0826 2.98186 37.3232 3.1753 37.6158 3.35459L40.3192 5.10973C40.7533 5.35508 41.0789 5.67591 41.2959 6.07223C41.5224 6.46856 41.6214 6.93093 41.5931 7.45936C41.546 8.38412 41.1921 9.10599 40.5316 9.62498C39.871 10.1345 38.9746 10.3893 37.8422 10.3893C37.427 10.3893 37.0213 10.3516 36.6249 10.2761C36.2381 10.21 35.8936 10.1157 35.5917 9.993C35.2897 9.86089 35.0491 9.70519 34.8698 9.5259C34.7943 9.31831 34.7613 9.06824 34.7707 8.77572C34.7802 8.4832 34.8226 8.18596 34.8981 7.88399C34.983 7.58203 35.0868 7.33197 35.2095 7.13381H35.3369C35.2992 7.61506 35.3841 8.06328 35.5917 8.47848C35.8087 8.88424 36.1201 9.20979 36.5259 9.45513C36.9411 9.69104 37.4318 9.80427 37.9979 9.79484C38.6207 9.7854 39.102 9.6297 39.4417 9.32774C39.7814 9.01635 39.9512 8.64361 39.9512 8.20955C39.9512 7.91702 39.8616 7.65281 39.6823 7.4169C39.5124 7.18099 39.2294 6.95452 38.833 6.73749L36.356 5.09558C35.8559 4.81249 35.4926 4.4492 35.2661 4.00569C35.0397 3.56219 34.95 3.08094 34.9972 2.56194C35.0444 2.07126 35.1906 1.64191 35.436 1.27389C35.6813 0.896444 36.0163 0.603921 36.4409 0.396323C36.875 0.188725 37.3893 0.0849261 37.9838 0.0849261ZM40.8005 0.22647L40.7722 0.523712H39.102V0.22647H40.8005Z" />
<path d="M47.2567 0L51.8852 10.1062H49.3374L46.3932 2.7318L47.2567 0ZM44.2135 9.15789C44.138 9.34661 44.1238 9.50703 44.171 9.63914C44.2182 9.77125 44.2984 9.87504 44.4116 9.95053C44.5249 10.0166 44.6381 10.0496 44.7513 10.0496H44.8787V10.1912H41.8497V10.0496C41.8497 10.0496 41.8733 10.0496 41.9205 10.0496C41.9582 10.0496 41.9771 10.0496 41.9771 10.0496C42.1941 10.0496 42.4159 9.98356 42.6423 9.85145C42.8782 9.70991 43.0717 9.47872 43.2227 9.15789H44.2135ZM47.2567 0L47.3133 1.72684L43.803 10.1487H42.7697L46.4357 1.85422C46.464 1.79761 46.5112 1.69381 46.5773 1.54283C46.6527 1.38241 46.7282 1.20312 46.8037 1.00496C46.8886 0.8068 46.9641 0.618075 47.0302 0.438786C47.0962 0.250061 47.1293 0.103799 47.1293 0H47.2567ZM48.7429 6.82241V7.4169H44.5815V6.82241H48.7429ZM48.9552 9.15789H51.4322C51.5926 9.47872 51.7861 9.70991 52.0125 9.85145C52.239 9.98356 52.4608 10.0496 52.6778 10.0496C52.6778 10.0496 52.6967 10.0496 52.7344 10.0496C52.7722 10.0496 52.791 10.0496 52.791 10.0496V10.1912H48.2899V10.0496H48.4173C48.606 10.0496 48.7712 9.97412 48.9127 9.82314C49.0543 9.66273 49.0684 9.44098 48.9552 9.15789Z" />
<path d="M56.1994 0.283087V10.1912H54.0762V0.283087H56.1994ZM59.9361 9.58252L60.2758 10.1912H56.1569V9.58252H59.9361ZM60.9694 7.28951L60.3183 10.1912H57.544L58.0536 9.58252C58.5254 9.58252 58.9406 9.49288 59.2992 9.31359C59.6577 9.12486 59.9644 8.86065 60.2192 8.52094C60.474 8.1718 60.6769 7.76132 60.8278 7.28951H60.9694ZM54.1187 9.15789V10.1912H52.9863V10.0496C52.9863 10.0496 53.0146 10.0496 53.0712 10.0496C53.1373 10.0496 53.1703 10.0496 53.1703 10.0496C53.4157 10.0496 53.6233 9.96469 53.7931 9.79484C53.9724 9.61555 54.0668 9.40323 54.0762 9.15789H54.1187ZM54.1187 1.31636H54.0762C54.0668 1.07102 53.9724 0.863418 53.7931 0.693565C53.6233 0.514276 53.4157 0.424631 53.1703 0.424631C53.1703 0.424631 53.1373 0.424631 53.0712 0.424631C53.0146 0.424631 52.9863 0.424631 52.9863 0.424631V0.283087H54.1187V1.31636ZM56.1569 1.31636V0.283087H57.2892V0.424631C57.2798 0.424631 57.2468 0.424631 57.1902 0.424631C57.1336 0.424631 57.1052 0.424631 57.1052 0.424631C56.8599 0.424631 56.6476 0.514276 56.4683 0.693565C56.2984 0.863418 56.2088 1.07102 56.1994 1.31636H56.1569Z" />
<path d="M67.2734 0.0849261C68.4057 0.0849261 69.3871 0.297242 70.2175 0.721874C71.0573 1.13707 71.7037 1.72684 72.1567 2.49117C72.619 3.25551 72.8502 4.17083 72.8502 5.23712C72.8502 6.29398 72.619 7.2093 72.1567 7.98307C71.7037 8.74741 71.0573 9.3419 70.2175 9.76653C69.3871 10.1817 68.4057 10.3893 67.2734 10.3893C66.141 10.3893 65.155 10.1817 64.3151 9.76653C63.4847 9.3419 62.8431 8.74741 62.3901 7.98307C61.9372 7.21874 61.7107 6.30342 61.7107 5.23712C61.7107 4.18026 61.9372 3.26966 62.3901 2.50533C62.8431 1.73155 63.4847 1.13707 64.3151 0.721874C65.155 0.297242 66.141 0.0849261 67.2734 0.0849261ZM67.2734 9.79484C67.9434 9.79484 68.519 9.61083 69.0002 9.24282C69.4815 8.86537 69.8542 8.33693 70.1184 7.65752C70.3826 6.97811 70.5148 6.17131 70.5148 5.23712C70.5148 4.30293 70.3826 3.49613 70.1184 2.81672C69.8542 2.13731 69.4815 1.6136 69.0002 1.24559C68.519 0.868136 67.9434 0.67941 67.2734 0.67941C66.6129 0.67941 66.0373 0.868136 65.5466 1.24559C65.0653 1.6136 64.6926 2.13731 64.4284 2.81672C64.1642 3.49613 64.0321 4.30293 64.0321 5.23712C64.0321 6.17131 64.1642 6.97811 64.4284 7.65752C64.6926 8.33693 65.0653 8.86537 65.5466 9.24282C66.0373 9.61083 66.6129 9.79484 67.2734 9.79484Z" />
<path d="M74.7098 0.0707719L83.7403 8.67664L83.9101 10.3893L74.8796 1.79761L74.7098 0.0707719ZM74.7805 9.1862V10.1912H73.6057V10.0496C73.6057 10.0496 73.6482 10.0496 73.7331 10.0496C73.818 10.0496 73.8652 10.0496 73.8747 10.0496C74.1106 10.0496 74.3134 9.96469 74.4833 9.79484C74.6531 9.62498 74.7381 9.4221 74.7381 9.1862H74.7805ZM76.7622 9.1862C76.7622 9.4221 76.8471 9.62498 77.0169 9.79484C77.1868 9.96469 77.3897 10.0496 77.6256 10.0496C77.635 10.0496 77.6822 10.0496 77.7671 10.0496C77.852 10.0496 77.8945 10.0496 77.8945 10.0496V10.1912H76.7197V9.1862H76.7622ZM74.7098 0.0707719L76.748 2.23639L76.7622 10.1912H74.7381V1.84007C74.7381 1.31164 74.7098 0.887008 74.6531 0.566176C74.5965 0.235907 74.5682 0.0707719 74.5682 0.0707719H74.7098ZM83.8677 0.283087V8.57756C83.8677 8.9267 83.8818 9.24282 83.9101 9.5259C83.9384 9.79955 83.9667 10.0119 83.995 10.1629C84.0233 10.3138 84.0375 10.3893 84.0375 10.3893H83.9101L81.8577 8.09631V0.283087H83.8677ZM85 0.283087V0.424631C85 0.424631 84.9575 0.424631 84.8726 0.424631C84.7877 0.424631 84.7452 0.424631 84.7452 0.424631C84.5093 0.424631 84.3064 0.509558 84.1366 0.67941C83.9667 0.839827 83.8771 1.04271 83.8677 1.28805H83.8252V0.283087H85ZM80.7112 0.283087H81.886V1.28805H81.8577C81.8483 1.04271 81.7587 0.839827 81.5888 0.67941C81.4284 0.509558 81.2255 0.424631 80.9802 0.424631C80.9802 0.424631 80.9377 0.424631 80.8528 0.424631C80.7678 0.424631 80.7207 0.424631 80.7112 0.424631V0.283087Z" />
</svg>
