<svg width="35" height="24" viewBox="0 0 35 24" fill="none" xmlns="http://www.w3.org/2000/svg">
<rect x="0.5" y="0.5" width="34" height="23" rx="3.5" fill="white" stroke="#D9D9D9"/>
<path d="M27.4976 14.3188H27.5151L28.9741 10.6557H30.0005L26.8462 18.0004H25.8735L27.0454 15.4311L24.9771 10.6557H26.0024L27.4976 14.3188ZM22.562 10.4897C23.2592 10.4897 23.81 10.6798 24.2144 11.0541C24.6188 11.4288 24.8188 11.9526 24.8188 12.6127V15.7582H23.9155V15.0502H23.8745C23.4819 15.6329 22.9664 15.9251 22.3159 15.9252C21.7649 15.9252 21.2955 15.7583 20.9263 15.4252C20.5629 15.116 20.3579 14.6579 20.3696 14.1762C20.3697 13.6471 20.5688 13.2306 20.9614 12.9155C21.3541 12.6004 21.8821 12.4457 22.5386 12.4457C23.1011 12.4458 23.5581 12.5532 23.9214 12.7553V12.5356C23.9214 12.2085 23.7808 11.8991 23.5347 11.685C23.2827 11.4591 22.9605 11.3345 22.6265 11.3344C22.0989 11.3344 21.6822 11.5602 21.3774 12.0122L20.5454 11.4829C20.9909 10.8228 21.6652 10.4897 22.562 10.4897ZM18.0894 8.30122C18.6931 8.28933 19.2796 8.5215 19.7075 8.94965C20.5628 9.75832 20.6155 11.1195 19.813 11.9936L19.7075 12.101C19.2679 12.5232 18.7282 12.7377 18.0894 12.7377H16.5298V15.7582H15.5864V8.30122H18.0894ZM22.6851 13.2192C22.3042 13.2192 21.982 13.3143 21.7241 13.4985C21.472 13.6828 21.3423 13.9153 21.3423 14.1948C21.3424 14.4444 21.4605 14.6762 21.6538 14.8188C21.8648 14.9851 22.1225 15.0747 22.3862 15.0688C22.7849 15.0688 23.1664 14.9079 23.4478 14.6225C23.7583 14.3252 23.9165 13.974 23.9165 13.5698C23.6234 13.3319 23.2127 13.2132 22.6851 13.2192ZM16.5298 11.8217H18.1128C18.4645 11.8336 18.805 11.6907 19.0454 11.435C19.5378 10.9176 19.5261 10.0849 19.0161 9.5854C18.7758 9.34754 18.4528 9.21723 18.1128 9.21723H16.5298V11.8217Z" fill="#3C4043"/>
<path d="M13.272 12.0831C13.272 11.7917 13.2486 11.5003 13.2017 11.2148H9.22168V12.8621H11.5018C11.408 13.3914 11.1032 13.8671 10.6578 14.1644V15.2349H12.0176C12.8148 14.4915 13.272 13.3914 13.272 12.0831Z" fill="#4285F4"/>
<path d="M9.22186 16.2696C10.359 16.2696 11.3203 15.889 12.0178 15.2349L10.6579 14.1645C10.2769 14.4261 9.79043 14.5748 9.22186 14.5748C8.11989 14.5748 7.1879 13.8195 6.85379 12.8086H5.45288V13.9147C6.16799 15.3598 7.62752 16.2696 9.22186 16.2696Z" fill="#34A853"/>
<path d="M6.85401 12.8088C6.67814 12.2796 6.67814 11.7027 6.85401 11.1675V10.0674H5.45288C4.84904 11.2746 4.84904 12.7018 5.45288 13.909L6.85401 12.8088Z" fill="#FBBC04"/>
<path d="M9.22186 9.40114C9.8256 9.38925 10.4059 9.62117 10.8397 10.0434L12.0471 8.81836C11.2793 8.09285 10.2711 7.69442 9.22186 7.70631C7.62752 7.70631 6.16799 8.62211 5.45288 10.0672L6.85379 11.1733C7.1879 10.1564 8.11989 9.40114 9.22186 9.40114Z" fill="#EA4335"/>
</svg>
