<svg viewBox="0 0 338 128" xmlns="http://www.w3.org/2000/svg">
<path d="M41.2303 128C33.8758 128 27.1216 126.884 20.9679 124.651C14.8891 122.418 9.97361 119.145 6.22131 114.833C2.46901 110.444 0.405248 105.055 0.0300184 98.6637C-0.120074 96.0457 0.292679 93.1583 1.26828 90.0014C2.24388 86.8444 3.5947 83.726 5.32076 80.6461C7.12187 77.4891 9.22316 74.6787 11.6246 72.2148C14.1011 69.6738 16.7278 67.7489 19.5045 66.4399C19.7296 66.2859 20.0673 66.1704 20.5176 66.0934C21.0429 66.0164 21.4181 65.9779 21.6433 65.9779C22.0935 65.9779 22.3187 66.0934 22.3187 66.3244C22.3187 66.7094 21.7558 67.3254 20.6301 68.1723C17.4782 70.7133 14.8891 73.6392 12.8629 76.9501C10.7616 80.2611 9.18563 83.803 8.13499 87.5759C7.08434 91.3488 6.55902 95.1602 6.55902 99.0101C6.55902 103.553 7.4971 107.48 9.37325 110.791C11.3244 114.025 13.9135 116.681 17.1405 118.76C20.3675 120.916 24.0447 122.495 28.1723 123.496C32.2998 124.497 36.6149 124.997 41.1177 124.997C46.1458 124.997 51.0988 124.42 55.9768 123.265C60.9299 122.11 65.4326 120.454 69.4851 118.298C75.7139 114.91 80.6294 110.714 84.2316 105.709C87.9089 100.704 89.7475 95.7377 89.7475 90.8098C89.7475 88.1919 89.1847 85.6895 88.059 83.3025C87.0083 80.9156 85.2823 78.7596 82.8808 76.8346C81.0797 75.3717 78.8659 73.9857 76.2392 72.6767C73.6877 71.3678 70.9485 70.0973 68.0217 68.8653C65.17 67.6334 62.3557 66.4014 59.579 65.1694C56.8023 63.8604 54.3633 62.4745 52.262 61.0115C49.2602 58.9325 47.0463 56.6996 45.6205 54.3127C44.2696 51.9257 43.5942 49.5388 43.5942 47.1518C43.5942 44.3029 44.3822 41.5309 45.9582 38.836C47.6092 36.1411 49.823 33.7156 52.5997 31.5597C55.4515 29.3267 58.641 27.5943 62.1681 26.3623C65.245 25.2843 68.5845 24.4373 72.1868 23.8213C75.864 23.2054 79.4662 22.8974 82.9934 22.8974C85.9202 22.8974 88.6969 23.1284 91.3235 23.5903C94.0251 23.9753 96.3891 24.7068 98.4153 25.7848C100.967 27.0168 102.918 28.6722 104.269 30.7512C105.62 32.7531 106.295 34.8706 106.295 37.1035C106.295 40.1835 104.944 42.8784 102.243 45.1884C101.267 45.9583 100.179 46.6898 98.9782 47.3828C97.7774 47.9988 96.3516 48.5378 94.7006 48.9998C94.4004 49.0768 94.0627 49.1153 93.6874 49.1153C92.7869 49.1153 92.3366 48.8458 92.3366 48.3068C92.3366 47.9988 92.5618 47.6908 93.012 47.3828C93.5373 46.9978 94.2878 46.7668 95.2634 46.6898C97.5148 46.3818 99.2033 45.4963 100.329 44.0334C101.53 42.5704 102.13 40.8765 102.13 38.9515C102.13 36.9495 101.455 34.9861 100.104 33.0611C98.8281 31.0592 96.8394 29.4037 94.1377 28.0947C91.4361 26.7088 87.9839 26.0158 83.7814 26.0158C81.3799 26.0158 78.7158 26.2853 75.789 26.8243C72.9372 27.3633 69.8228 28.2487 66.4457 29.4807C62.3182 30.9437 58.8661 33.0996 56.0894 35.9486C53.3877 38.7975 52.0369 41.8389 52.0369 45.0729C52.0369 47.0748 52.6748 49.1153 53.9506 51.1942C55.3014 53.1962 57.4402 55.1211 60.367 56.9691C62.8435 58.5091 65.6578 60.049 68.8097 61.589C71.9616 63.052 75.1511 64.5534 78.3781 66.0934C81.605 67.5564 84.5318 69.1348 87.1584 70.8288C91.286 73.4467 94.2503 76.2572 96.0514 79.2601C97.8525 82.263 98.753 85.343 98.753 88.4999C98.753 92.1958 97.6649 95.9302 95.4885 99.7031C93.3873 103.399 90.6105 106.902 87.1584 110.213C83.7063 113.447 79.9165 116.335 75.789 118.876C70.986 121.802 65.5452 124.035 59.4665 125.575C53.4628 127.192 47.384 128 41.2303 128Z" />
<path d="M95.8852 118.298C99.0371 111.676 102.302 104.747 105.679 97.5087C109.131 90.1938 112.658 82.8405 116.26 75.4487C119.862 68.0568 123.427 61.0115 126.954 54.3127C128.23 52.0027 129.393 50.1932 130.444 48.8843C131.57 47.5753 133.033 46.9208 134.834 46.9208C135.509 46.9208 136.297 47.0363 137.198 47.2673C138.099 47.4983 138.962 47.5368 139.787 47.3828C138.811 48.4608 137.461 50.3472 135.735 53.0422C134.084 55.7371 132.207 58.971 130.106 62.744C128.08 66.5169 125.904 70.5978 123.577 74.9867C121.326 79.2986 119.074 83.6875 116.823 88.1534C114.647 92.5423 112.62 96.6617 110.744 100.512C112.245 98.5097 113.784 96.6232 115.36 94.8522C116.936 93.0813 118.474 91.5413 119.975 90.2323C121.626 88.6924 123.69 87.0754 126.166 85.3815C128.718 83.6875 131.232 82.2245 133.708 80.9926C136.26 79.7606 138.286 79.1446 139.787 79.1446C140.312 79.1446 140.688 79.1831 140.913 79.2601C140.913 79.2601 140.5 80.0301 139.675 81.57C138.849 83.11 137.798 85.0735 136.523 87.4604C135.322 89.8474 134.046 92.4268 132.695 95.1987C131.419 97.9707 130.294 100.627 129.318 103.168C128.343 105.632 127.705 107.672 127.404 109.289C127.179 110.521 127.067 111.561 127.067 112.408C127.067 113.64 127.292 114.487 127.742 114.949C128.192 115.334 128.68 115.526 129.206 115.526C130.481 115.526 131.832 114.872 133.258 113.563C134.759 112.177 136.222 110.444 137.648 108.365C139.074 106.286 140.387 104.092 141.588 101.782C142.864 99.3951 143.877 97.1622 144.628 95.0832C145.528 95.0832 145.978 95.4297 145.978 96.1227C145.153 98.2017 144.102 100.512 142.826 103.053C141.626 105.517 140.237 107.865 138.661 110.098C137.085 112.331 135.359 114.179 133.483 115.642C131.607 117.105 129.618 117.836 127.517 117.836C126.016 117.836 124.478 117.297 122.902 116.219C121.326 115.141 120.538 113.178 120.538 110.329C120.538 109.482 120.613 108.596 120.763 107.672C120.913 106.671 121.176 105.555 121.551 104.323C122.001 102.783 122.752 101.089 123.802 99.2411C124.853 97.3162 126.204 94.9292 127.855 92.0803C128.605 90.7713 128.98 89.7319 128.98 88.9619C128.98 88.0379 128.53 87.5759 127.63 87.5759C126.879 87.5759 125.866 87.9609 124.59 88.7309C123.314 89.5009 121.701 90.8483 119.75 92.7733C117.874 94.6213 115.547 97.3162 112.771 100.858C109.994 104.4 107.03 109.366 103.878 115.757C103.352 116.758 102.752 117.297 102.076 117.374C101.476 117.374 100.651 117.413 99.5999 117.49C98.9245 117.567 98.2491 117.605 97.5737 117.605C96.8983 117.682 96.3354 117.913 95.8852 118.298Z" />
<path d="M147.772 117.374C144.996 117.374 143.045 116.566 141.919 114.949C140.793 113.255 140.23 111.33 140.23 109.174C140.23 108.019 140.343 106.864 140.568 105.709C140.868 104.477 141.206 103.361 141.581 102.36L149.123 82.6095C149.348 81.9935 149.461 81.4545 149.461 80.9926C149.461 80.2226 149.273 79.5681 148.898 79.0291C148.523 78.4131 148.26 77.9896 148.11 77.7586L154.301 77.5276C155.427 77.4506 156.215 77.6046 156.665 77.9896C157.191 78.2976 157.453 78.6826 157.453 79.1446C157.453 79.6066 157.191 80.4536 156.665 81.6855C155.915 83.5335 154.902 85.8434 153.626 88.6154C152.35 91.3873 151.074 94.2363 149.799 97.1622C148.598 100.088 147.547 102.822 146.647 105.363C145.821 107.903 145.408 109.867 145.408 111.253C145.408 112.254 145.634 113.101 146.084 113.794C146.609 114.487 147.472 114.833 148.673 114.833C150.249 114.833 151.787 114.217 153.288 112.985C154.864 111.676 156.328 110.021 157.679 108.019C159.029 106.017 160.268 103.861 161.393 101.551C162.594 99.2411 163.607 97.0852 164.433 95.0832C165.333 95.0832 165.783 95.4297 165.783 96.1227C165.033 98.0477 164.057 100.242 162.857 102.706C161.656 105.17 160.268 107.518 158.692 109.751C157.191 111.907 155.502 113.717 153.626 115.18C151.825 116.643 149.874 117.374 147.772 117.374ZM157.791 70.3668C156.815 70.3668 155.952 69.9818 155.202 69.2118C154.527 68.4418 154.189 67.5179 154.189 66.4399C154.189 65.1309 154.714 63.9759 155.765 62.975C156.815 61.897 157.979 61.358 159.254 61.358C160.305 61.358 161.206 61.7045 161.956 62.3975C162.707 63.0905 163.082 63.9759 163.082 65.0539C163.082 66.4399 162.557 67.6719 161.506 68.7498C160.455 69.8278 159.217 70.3668 157.791 70.3668Z" />
<path d="M164.408 95.0832C164.933 93.8513 165.496 92.5808 166.097 91.2718C166.697 89.8859 167.56 88.1534 168.686 86.0744C170.036 83.6105 171.462 81.801 172.963 80.6461C174.464 79.4141 175.928 78.6056 177.353 78.2206C178.779 77.8356 179.943 77.6431 180.843 77.6431C182.719 77.6431 184.37 77.9126 185.796 78.4516C187.222 78.9906 188.498 79.5681 189.624 80.1841C190.824 80.7231 191.987 80.9926 193.113 80.9926C194.539 80.9926 195.59 80.6076 196.265 79.8376C196.94 79.0676 197.541 78.6826 198.066 78.6826C198.591 78.6826 199.042 78.9136 199.417 79.3756C199.792 79.8376 199.98 80.4151 199.98 81.1081C199.98 82.109 199.567 82.8405 198.742 83.3025C197.916 83.7645 196.528 84.5345 194.577 85.6125C192.475 86.7674 190.599 88.4229 188.948 90.5788C187.297 92.7348 185.684 95.0447 184.108 97.5087C182.607 99.9726 180.956 102.398 179.155 104.785C177.353 107.095 175.252 109.058 172.851 110.675C175.702 111.137 178.329 111.638 180.731 112.177C183.132 112.716 185.233 112.985 187.034 112.985C187.485 112.985 187.86 112.985 188.16 112.985C188.535 112.908 188.911 112.831 189.286 112.754C191.537 112.138 193.488 110.906 195.139 109.058C196.865 107.133 198.366 104.939 199.642 102.475C200.918 100.011 202.044 97.5472 203.019 95.0832C203.92 95.0832 204.37 95.4297 204.37 96.1227C203.019 99.5876 201.406 103.014 199.53 106.402C197.653 109.79 195.552 112.6 193.226 114.833C190.899 117.066 188.348 118.183 185.571 118.183C182.269 118.183 179.342 117.875 176.791 117.259C174.239 116.643 172.1 116.335 170.374 116.335C168.948 116.335 167.56 116.72 166.209 117.49C164.933 118.337 163.545 118.76 162.044 118.76C160.693 118.76 160.018 118.183 160.018 117.028C160.018 116.258 160.205 115.603 160.581 115.064C160.806 114.602 161.594 114.102 162.945 113.563C164.295 112.947 165.684 112.369 167.11 111.83C168.611 111.214 169.624 110.752 170.149 110.444C171.5 109.751 172.963 108.442 174.539 106.517C176.19 104.516 177.879 102.283 179.605 99.8186C181.331 97.2777 183.019 94.8137 184.67 92.4268C186.321 90.0398 187.897 88.0379 189.398 86.4209C188.048 86.1129 186.509 85.7664 184.783 85.3815C183.057 84.9965 181.443 84.804 179.943 84.804C177.766 84.804 175.89 85.035 174.314 85.497C172.738 85.8819 171.275 86.8829 169.924 88.4999C168.648 90.1169 167.26 92.6578 165.759 96.1227C164.858 96.1227 164.408 95.7762 164.408 95.0832Z" />
<path d="M206.258 117.374C205.433 117.374 204.42 117.182 203.219 116.797C202.093 116.412 201.08 115.719 200.179 114.718C199.354 113.64 198.941 112.061 198.941 109.982C198.941 107.98 199.579 105.671 200.855 103.053C202.131 100.435 203.256 98.1247 204.232 96.1227C203.406 96.1227 202.994 95.7762 202.994 95.0832C203.069 94.8522 203.406 94.1208 204.007 92.8888C204.607 91.6568 205.32 90.1938 206.146 88.4999C206.971 86.8059 207.759 85.189 208.51 83.649C209.335 82.032 209.973 80.8001 210.423 79.9531C211.324 78.2591 212.75 77.4121 214.701 77.4121H221.68C220.404 78.4131 219.241 79.5296 218.191 80.7616C217.215 81.9165 215.977 84.0725 214.476 87.2294C214.476 87.2294 214.213 87.7684 213.688 88.8464C213.162 89.9244 212.487 91.3103 211.662 93.0043C210.911 94.6212 210.123 96.2767 209.298 97.9707C208.547 99.6646 207.909 101.089 207.384 102.244C206.408 104.4 205.77 106.132 205.47 107.441C205.17 108.673 205.02 109.828 205.02 110.906C205.02 113.447 205.845 114.718 207.496 114.718C209.298 114.718 211.474 113.216 214.025 110.213C216.127 107.672 218.191 104.631 220.217 101.089C222.243 97.5472 224.157 93.8898 225.958 90.1169C227.834 86.3439 229.485 82.956 230.911 79.9531C231.736 78.2591 233.2 77.4121 235.301 77.4121H241.492C239.841 78.7981 238.153 80.8771 236.427 83.649C234.776 86.4209 232.937 89.9629 230.911 94.2748C230.385 95.4297 229.71 96.8927 228.885 98.6637C228.059 100.435 227.309 102.321 226.633 104.323C226.033 106.325 225.733 108.327 225.733 110.329C225.733 113.024 226.671 114.371 228.547 114.371C231.098 114.371 233.575 112.562 235.976 108.943C238.378 105.324 240.742 100.704 243.068 95.0832C243.669 95.0832 244.006 95.1217 244.081 95.1987C244.231 95.2757 244.344 95.5837 244.419 96.1227C243.594 98.2017 242.58 100.473 241.38 102.937C240.254 105.324 238.941 107.634 237.44 109.867C236.014 112.1 234.4 113.909 232.599 115.295C230.873 116.681 228.96 117.374 226.858 117.374C224.982 117.374 223.444 116.681 222.243 115.295C221.042 113.832 220.442 111.792 220.442 109.174C220.442 107.095 220.817 104.862 221.568 102.475C220.292 104.785 218.828 107.095 217.177 109.405C215.526 111.715 213.763 113.64 211.887 115.18C210.01 116.643 208.134 117.374 206.258 117.374Z" />
<path d="M262.705 118.183C260.604 117.952 258.878 117.143 257.527 115.757C256.176 114.294 255.201 112.6 254.6 110.675C254 108.75 253.7 106.979 253.7 105.363C253.7 102.283 254.375 99.8186 255.726 97.9707C257.077 96.0457 258.315 95.0447 259.441 94.9677C260.642 95.0447 262.105 94.7753 263.831 94.1593C265.557 93.4663 267.058 92.5423 268.334 91.3873C270.51 89.6164 271.598 87.8069 271.598 85.9589C271.598 84.034 270.51 83.0715 268.334 83.0715C267.133 83.0715 265.595 83.495 263.719 84.342C261.917 85.189 259.816 86.6519 257.415 88.7309C254.413 91.3488 251.298 94.8522 248.071 99.2411C247.621 100.242 247.096 101.744 246.495 103.746C245.895 105.671 245.37 107.672 244.919 109.751C244.544 111.83 244.357 113.601 244.357 115.064C244.357 116.219 244.544 116.989 244.919 117.374H237.828C237.002 117.374 236.589 117.028 236.589 116.335C236.589 116.104 236.627 115.911 236.702 115.757C236.777 115.603 236.852 115.295 236.927 114.833C237.978 110.829 239.216 107.287 240.642 104.208C242.143 101.128 243.381 98.4327 244.357 96.1227C243.681 96.3537 243.306 96.3152 243.231 96.0072C243.156 95.6222 243.118 95.3142 243.118 95.0832C243.644 93.8513 244.507 91.8878 245.707 89.1929C246.983 86.4209 248.447 83.264 250.098 79.7221C251.824 76.1032 253.662 72.3302 255.614 68.4033C257.565 64.4764 259.516 60.7035 261.467 57.0846C263.418 53.3887 264.994 50.7707 266.195 49.2308C267.471 47.6908 269.009 46.9208 270.81 46.9208C271.486 46.9208 272.274 47.0363 273.174 47.2673C274.15 47.4983 275.013 47.5368 275.763 47.3828C274.112 48.8458 272.049 51.5407 269.572 55.4676C267.096 59.3175 264.469 63.8219 261.692 68.9808C258.916 74.1397 256.251 79.4141 253.7 84.804C252.949 86.3439 252.236 87.9609 251.561 89.6549C250.886 91.3488 250.248 93.0428 249.647 94.7367C251.223 92.7348 253.024 90.6558 255.051 88.4999C257.077 86.3439 259.178 84.3805 261.355 82.6095C263.606 80.7616 265.82 79.4141 267.996 78.5671C270.473 77.6431 272.536 77.1811 274.187 77.1811C275.913 77.1811 277.152 77.6046 277.902 78.4516C278.728 79.2986 279.14 80.3766 279.14 81.6855C279.14 83.1485 278.578 84.9195 277.452 86.9984C276.326 89.0004 274.788 90.7328 272.837 92.1958C271.186 93.3508 269.46 94.3518 267.658 95.1987C265.857 96.0457 263.719 96.5847 261.242 96.8157C260.792 97.8937 260.454 99.0102 260.229 100.165C260.079 101.243 260.004 102.321 260.004 103.399C260.004 106.402 260.679 109.058 262.03 111.368C263.381 113.601 265.144 114.718 267.321 114.718C268.371 114.718 269.497 114.41 270.698 113.794C271.974 113.178 273.287 112.138 274.638 110.675C276.139 109.135 277.64 107.018 279.14 104.323C280.641 101.551 282.142 98.4712 283.643 95.0832C284.544 95.0832 284.994 95.4297 284.994 96.1227C282.292 102.822 279.666 107.788 277.114 111.022C274.563 114.256 272.086 116.335 269.685 117.259C267.358 118.106 265.032 118.414 262.705 118.183Z" />
<path d="M308.11 117.721C306.384 117.721 304.846 117.22 303.495 116.219C302.219 115.218 301.581 113.178 301.581 110.098C301.581 108.789 301.656 107.557 301.806 106.402C302.032 105.247 302.294 104.015 302.594 102.706C301.919 103.861 300.981 105.286 299.78 106.979C298.579 108.673 297.229 110.329 295.728 111.946C294.302 113.563 292.801 114.91 291.225 115.988C289.724 117.066 288.298 117.605 286.947 117.605C284.996 117.605 283.42 116.72 282.219 114.949C281.019 113.101 280.418 110.714 280.418 107.788C280.418 104.631 281.131 101.243 282.557 97.6242C283.983 94.0053 285.934 90.5403 288.411 87.2294C290.887 83.9185 293.739 81.2235 296.966 79.1446C300.193 77.0656 303.57 76.0262 307.097 76.0262C308.823 76.0262 310.474 76.3342 312.05 76.9501C313.626 77.4891 315.015 78.4131 316.215 79.7221C316.741 80.2611 317.003 80.8771 317.003 81.57C317.003 82.032 316.816 82.417 316.44 82.725C316.065 83.033 315.577 83.11 314.977 82.956C314.151 80.2611 312.388 78.9136 309.686 78.9136C308.41 78.9136 306.947 79.3371 305.296 80.1841C303.27 81.262 301.093 82.9945 298.767 85.3815C296.516 87.6914 294.377 90.3478 292.351 93.3508C290.399 96.2767 288.786 99.2411 287.51 102.244C286.234 105.247 285.596 107.98 285.596 110.444C285.596 112.985 286.535 114.256 288.411 114.256C290.062 114.256 291.75 113.447 293.476 111.83C295.277 110.213 296.966 108.211 298.542 105.824C300.193 103.361 301.694 100.935 303.045 98.5482C304.396 96.1612 305.446 94.2363 306.197 92.7733C307.322 90.6943 308.373 88.9619 309.349 87.5759C310.324 86.1899 311.712 85.497 313.514 85.497C314.339 85.497 315.165 85.6124 315.99 85.8434C316.816 86.0744 317.679 86.1129 318.579 85.9589C316.328 88.2689 314.339 91.0023 312.613 94.1593C310.962 97.3162 309.686 100.435 308.786 103.515C307.885 106.517 307.435 109.058 307.435 111.137C307.435 113.447 308.185 114.602 309.686 114.602C310.887 114.602 312.163 113.909 313.514 112.523C314.939 111.137 316.29 109.405 317.566 107.326C318.917 105.17 320.155 103.014 321.281 100.858C322.407 98.6252 323.307 96.7002 323.983 95.0832C324.358 95.0832 324.658 95.1217 324.883 95.1987C325.183 95.2757 325.333 95.5837 325.333 96.1227C325.258 96.4307 325.108 96.7772 324.883 97.1622C324.733 97.4702 324.47 98.0477 324.095 98.8947C323.495 100.127 322.669 101.782 321.619 103.861C320.568 105.94 319.33 108.057 317.904 110.213C316.478 112.292 314.939 114.063 313.288 115.526C311.637 116.989 309.911 117.721 308.11 117.721Z" />
<path d="M151.041 0.346491C151.792 0.346491 152.711 0.384991 153.799 0.461991C154.925 0.538988 156.069 0.654485 157.233 0.808482C158.433 0.92398 159.465 1.05873 160.328 1.21272C161.229 1.32822 161.848 1.46297 162.186 1.61696L161.51 9.41304H160.947C160.947 7.41108 160.216 5.81337 158.752 4.6199C157.326 3.38792 155.413 2.77194 153.011 2.77194C150.835 2.77194 149.071 3.31092 147.721 4.3889C146.407 5.46688 145.713 6.77585 145.638 8.31581C145.6 9.47079 145.957 10.4718 146.707 11.3187C147.458 12.1657 148.415 12.955 149.578 13.6864L160.328 20.8473C162.054 21.8483 163.349 23.1572 164.212 24.7742C165.112 26.3912 165.506 28.2776 165.394 30.4336C165.206 34.2065 163.799 37.1517 161.173 39.2691C158.546 41.3481 154.981 42.3876 150.479 42.3876C148.827 42.3876 147.214 42.2336 145.638 41.9256C144.1 41.6561 142.73 41.2711 141.529 40.7706C140.329 40.2316 139.372 39.5964 138.659 38.8649C138.359 38.0179 138.227 36.9977 138.265 35.8042C138.302 34.6107 138.471 33.398 138.771 32.166C139.109 30.9341 139.522 29.9138 140.01 29.1053H140.516C140.366 31.0688 140.704 32.8975 141.529 34.5915C142.392 36.2469 143.631 37.5752 145.244 38.5761C146.895 39.5386 148.846 40.0006 151.098 39.9621C153.574 39.9236 155.488 39.2884 156.839 38.0564C158.189 36.7859 158.865 35.2652 158.865 33.4943C158.865 32.3008 158.508 31.2228 157.795 30.2603C157.12 29.2978 155.994 28.3739 154.418 27.4884L144.569 20.7895C142.58 19.6346 141.135 18.1523 140.235 16.3429C139.334 14.5334 138.978 12.57 139.165 10.4525C139.353 8.45056 139.935 6.69885 140.91 5.19738C141.886 3.65742 143.218 2.46395 144.906 1.61696C146.632 0.769982 148.677 0.346491 151.041 0.346491ZM162.242 0.923978L162.129 2.1367H155.488V0.923978H162.242Z" />
<path d="M187.915 0L206.32 41.2326H196.189L184.481 11.1455L187.915 0ZM175.814 37.3634C175.513 38.1334 175.457 38.7879 175.645 39.3269C175.832 39.8659 176.151 40.2893 176.602 40.5973C177.052 40.8668 177.502 41.0016 177.952 41.0016H178.459V41.5791H166.414V41.0016C166.414 41.0016 166.508 41.0016 166.695 41.0016C166.846 41.0016 166.921 41.0016 166.921 41.0016C167.784 41.0016 168.665 40.7321 169.566 40.1931C170.504 39.6156 171.273 38.6724 171.874 37.3634H175.814ZM187.915 0L188.14 7.04534L174.181 41.4058H170.073L184.65 7.56508C184.763 7.33408 184.95 6.9106 185.213 6.29461C185.513 5.64012 185.813 4.90864 186.114 4.10016C186.451 3.29168 186.752 2.52169 187.014 1.79021C187.277 1.02023 187.408 0.42349 187.408 0H187.915ZM193.825 27.8349V30.2603H177.277V27.8349H193.825ZM194.669 37.3634H204.519C205.157 38.6724 205.926 39.6156 206.826 40.1931C207.727 40.7321 208.609 41.0016 209.472 41.0016C209.472 41.0016 209.547 41.0016 209.697 41.0016C209.847 41.0016 209.922 41.0016 209.922 41.0016V41.5791H192.023V41.0016H192.53C193.281 41.0016 193.937 40.6936 194.5 40.0776C195.063 39.4231 195.119 38.5184 194.669 37.3634Z" />
<path d="M223.475 1.15497V41.5791H215.032V1.15497H223.475ZM238.334 39.0959L239.685 41.5791H223.306V39.0959H238.334ZM242.443 29.7406L239.854 41.5791H228.822L230.848 39.0959C232.725 39.0959 234.376 38.7301 235.801 37.9986C237.227 37.2287 238.447 36.1507 239.46 34.7647C240.473 33.3403 241.28 31.6655 241.88 29.7406H242.443ZM215.201 37.3634V41.5791H210.699V41.0016C210.699 41.0016 210.811 41.0016 211.036 41.0016C211.299 41.0016 211.43 41.0016 211.43 41.0016C212.406 41.0016 213.231 40.6551 213.907 39.9621C214.62 39.2306 214.995 38.3644 215.032 37.3634H215.201ZM215.201 5.37063H215.032C214.995 4.36965 214.62 3.52267 213.907 2.82969C213.231 2.0982 212.406 1.73246 211.43 1.73246C211.43 1.73246 211.299 1.73246 211.036 1.73246C210.811 1.73246 210.699 1.73246 210.699 1.73246V1.15497H215.201V5.37063ZM223.306 5.37063V1.15497H227.809V1.73246C227.771 1.73246 227.64 1.73246 227.415 1.73246C227.19 1.73246 227.077 1.73246 227.077 1.73246C226.102 1.73246 225.257 2.0982 224.545 2.82969C223.869 3.52267 223.513 4.36965 223.475 5.37063H223.306Z" />
<path d="M267.511 0.346491C272.013 0.346491 275.916 1.21272 279.218 2.94518C282.557 4.63915 285.128 7.04534 286.929 10.1638C288.767 13.2822 289.687 17.0166 289.687 21.367C289.687 25.6789 288.767 29.4133 286.929 32.5703C285.128 35.6887 282.557 38.1141 279.218 39.8466C275.916 41.5406 272.013 42.3876 267.511 42.3876C263.008 42.3876 259.087 41.5406 255.747 39.8466C252.445 38.1141 249.894 35.6887 248.093 32.5703C246.291 29.4518 245.391 25.7174 245.391 21.367C245.391 17.0551 246.291 13.34 248.093 10.2215C249.894 7.06459 252.445 4.63915 255.747 2.94518C259.087 1.21272 263.008 0.346491 267.511 0.346491ZM267.511 39.9621C270.175 39.9621 272.464 39.2114 274.377 37.7099C276.291 36.1699 277.773 34.014 278.824 31.242C279.875 28.4701 280.4 25.1784 280.4 21.367C280.4 17.5556 279.875 14.2639 278.824 11.492C277.773 8.72005 276.291 6.58335 274.377 5.08189C272.464 3.54192 270.175 2.77194 267.511 2.77194C264.884 2.77194 262.595 3.54192 260.644 5.08189C258.73 6.58335 257.248 8.72005 256.198 11.492C255.147 14.2639 254.622 17.5556 254.622 21.367C254.622 25.1784 255.147 28.4701 256.198 31.242C257.248 34.014 258.73 36.1699 260.644 37.7099C262.595 39.2114 264.884 39.9621 267.511 39.9621Z" />
<path d="M297.081 0.288743L332.991 35.4L333.666 42.3876L297.757 7.33408L297.081 0.288743ZM297.363 37.4789V41.5791H292.691V41.0016C292.691 41.0016 292.86 41.0016 293.198 41.0016C293.535 41.0016 293.723 41.0016 293.76 41.0016C294.698 41.0016 295.505 40.6551 296.181 39.9621C296.856 39.2691 297.194 38.4414 297.194 37.4789H297.363ZM305.242 37.4789C305.242 38.4414 305.58 39.2691 306.256 39.9621C306.931 40.6551 307.738 41.0016 308.676 41.0016C308.713 41.0016 308.901 41.0016 309.239 41.0016C309.576 41.0016 309.745 41.0016 309.745 41.0016V41.5791H305.074V37.4789H305.242ZM297.081 0.288743L305.186 9.12429L305.242 41.5791H297.194V7.50733C297.194 5.35138 297.081 3.61892 296.856 2.30995C296.631 0.962479 296.518 0.288743 296.518 0.288743H297.081ZM333.497 1.15497V34.9957C333.497 36.4202 333.553 37.7099 333.666 38.8649C333.779 39.9814 333.891 40.8476 334.004 41.4636C334.116 42.0796 334.173 42.3876 334.173 42.3876H333.666L325.505 33.0323V1.15497H333.497ZM338 1.15497V1.73246C338 1.73246 337.831 1.73246 337.493 1.73246C337.156 1.73246 336.987 1.73246 336.987 1.73246C336.049 1.73246 335.242 2.07895 334.567 2.77194C333.891 3.42642 333.535 4.25415 333.497 5.25513H333.328V1.15497H338ZM320.946 1.15497H325.617V5.25513H325.505C325.467 4.25415 325.111 3.42642 324.435 2.77194C323.798 2.07895 322.991 1.73246 322.015 1.73246C322.015 1.73246 321.846 1.73246 321.509 1.73246C321.171 1.73246 320.983 1.73246 320.946 1.73246V1.15497Z" />
</svg>
